<?xml version="1.0" standalone="no"?>
<!DOCTYPE svg PUBLIC "-//W3C//DTD SVG 20010904//EN"
 "http://www.w3.org/TR/2001/REC-SVG-20010904/DTD/svg10.dtd">
<svg version="1.0" xmlns="http://www.w3.org/2000/svg"
 width="512.000000pt" height="512.000000pt" viewBox="0 0 512.000000 512.000000"
 preserveAspectRatio="xMidYMid meet">

<g transform="translate(0.000000,512.000000) scale(0.100000,-0.100000)"
fill="#fff" stroke="none">
<path d="M1630 4655 l0 -235 -815 0 -815 0 0 -230 0 -230 1300 0 1299 0 -30
-82 c-103 -281 -279 -609 -464 -862 -94 -130 -231 -296 -243 -296 -11 0 -165
187 -244 295 -79 108 -166 246 -239 377 l-54 98 -232 0 -232 0 35 -77 c123
-271 350 -623 574 -888 l83 -98 -114 -111 c-63 -61 -329 -324 -593 -585 l-478
-473 163 -164 164 -164 582 582 583 583 363 -363 362 -362 89 237 89 236 -295
294 -295 293 75 88 c328 382 608 876 757 1332 15 47 32 91 38 98 7 9 88 12
343 12 l334 0 0 230 0 230 -812 2 -813 3 -3 233 -2 232 -230 0 -230 0 0 -235z"/>
<path d="M3599 3003 c-6 -16 -239 -638 -519 -1383 -280 -745 -512 -1363 -515
-1373 -7 -16 6 -17 226 -15 l234 3 130 347 130 348 555 0 555 0 130 -348 130
-347 233 -3 c127 -1 232 -1 232 0 0 2 -236 631 -524 1398 l-523 1395 -232 3
-231 2 -11 -27z m429 -1100 c100 -269 182 -491 182 -495 0 -5 -166 -8 -370 -8
-203 0 -370 3 -370 8 0 16 364 982 370 982 4 0 88 -219 188 -487z"/>
</g>
</svg>
